<svg xmlns="http://www.w3.org/2000/svg" xmlns:xlink="http://www.w3.org/1999/xlink" width="40" zoomAndPan="magnify" viewBox="0 0 30 30.000001" height="40" preserveAspectRatio="xMidYMid meet" version="1.0"><defs><filter x="0%" y="0%" width="100%" height="100%" id="ef9c2f9bbb"><feColorMatrix values="0 0 0 0 1 0 0 0 0 1 0 0 0 0 1 0 0 0 1 0" color-interpolation-filters="sRGB"/></filter><g/><clipPath id="dfd286fbe4"><path d="M 7.988281 4.535156 L 21.777344 4.535156 L 21.777344 12 L 7.988281 12 Z M 7.988281 4.535156 " clip-rule="nonzero"/></clipPath><clipPath id="c1965c759f"><path d="M 19 4.535156 L 21 4.535156 L 21 7 L 19 7 Z M 19 4.535156 " clip-rule="nonzero"/></clipPath><clipPath id="f08d1e03c1"><path d="M 8 4.535156 L 11 4.535156 L 11 7 L 8 7 Z M 8 4.535156 " clip-rule="nonzero"/></clipPath><clipPath id="34a3458463"><path d="M 11 6 L 21 6 L 21 15.421875 L 11 15.421875 Z M 11 6 " clip-rule="nonzero"/></clipPath><mask id="79a1af9e7f"><g filter="url(#ef9c2f9bbb)"><rect x="-3" width="36" fill="#000000" y="-3" height="36.000001" fill-opacity="0.149"/></g></mask><clipPath id="a3781ebdb7"><path d="M 0.707031 4 L 9 4 L 9 11.664062 L 0.707031 11.664062 Z M 0.707031 4 " clip-rule="nonzero"/></clipPath><clipPath id="2aa1578a4a"><path d="M 8 0.777344 L 16.671875 0.777344 L 16.671875 8 L 8 8 Z M 8 0.777344 " clip-rule="nonzero"/></clipPath><clipPath id="1e0247d07b"><rect x="0" width="17" y="0" height="12"/></clipPath><mask id="14f68a769e"><g filter="url(#ef9c2f9bbb)"><rect x="-3" width="36" fill="#000000" y="-3" height="36.000001" fill-opacity="0.4667"/></g></mask><clipPath id="424d0241ba"><path d="M 0.1875 1 L 2 1 L 2 4 L 0.1875 4 Z M 0.1875 1 " clip-rule="nonzero"/></clipPath><clipPath id="77107f1fa6"><path d="M 5 1 L 7.851562 1 L 7.851562 4 L 5 4 Z M 5 1 " clip-rule="nonzero"/></clipPath><clipPath id="618a1cbcc1"><rect x="0" width="8" y="0" height="5"/></clipPath></defs><g clip-path="url(#dfd286fbe4)"><path fill="#004b72" d="M 10.726562 7.640625 L 14.882812 4.542969 L 21.777344 9.691406 L 21.777344 11.28125 L 14.882812 6.144531 L 10.726562 9.242188 Z M 7.988281 9.691406 L 8.855469 9.039062 L 8.855469 10.636719 L 7.988281 11.28125 Z M 7.988281 9.691406 " fill-opacity="1" fill-rule="nonzero"/></g><g clip-path="url(#c1965c759f)"><path fill="#004b72" d="M 20.898438 5.515625 C 20.898438 4.984375 20.484375 4.542969 19.976562 4.542969 C 19.464844 4.542969 19.042969 4.984375 19.042969 5.515625 C 19.042969 6.050781 19.464844 6.480469 19.976562 6.480469 C 20.484375 6.484375 20.898438 6.050781 20.898438 5.515625 Z M 20.898438 5.515625 " fill-opacity="1" fill-rule="nonzero"/></g><path fill="#004b72" d="M 10.753906 9.714844 L 14.882812 7.304688 L 19.011719 9.714844 L 14.882812 6.675781 Z M 10.753906 9.714844 " fill-opacity="1" fill-rule="nonzero"/><path fill="#32cd99" d="M 13.769531 9.671875 L 14.769531 9.671875 L 14.769531 10.714844 L 13.769531 10.714844 Z M 13.769531 9.671875 " fill-opacity="1" fill-rule="nonzero"/><path fill="#32cd99" d="M 14.996094 9.671875 L 15.992188 9.671875 L 15.992188 10.714844 L 14.996094 10.714844 Z M 14.996094 9.671875 " fill-opacity="1" fill-rule="nonzero"/><path fill="#32cd99" d="M 13.769531 10.945312 L 14.769531 10.945312 L 14.769531 11.976562 L 13.769531 11.976562 Z M 13.769531 10.945312 " fill-opacity="1" fill-rule="nonzero"/><path fill="#32cd99" d="M 14.996094 10.945312 L 15.992188 10.945312 L 15.992188 11.976562 L 14.996094 11.976562 Z M 14.996094 10.945312 " fill-opacity="1" fill-rule="nonzero"/><g clip-path="url(#f08d1e03c1)"><path fill="#32cd99" d="M 10.71875 5.515625 C 10.71875 4.984375 10.304688 4.542969 9.789062 4.542969 C 9.277344 4.542969 8.863281 4.984375 8.863281 5.515625 C 8.863281 6.050781 9.277344 6.480469 9.789062 6.480469 C 10.304688 6.484375 10.71875 6.050781 10.71875 5.515625 Z M 10.71875 5.515625 " fill-opacity="1" fill-rule="nonzero"/></g><path fill="#32cd99" d="M 14.882812 14.113281 C 13.65625 14.113281 12.539062 13.589844 11.726562 12.742188 C 10.914062 11.902344 10.414062 10.734375 10.414062 9.457031 C 10.414062 8.117188 10.414062 9.007812 10.414062 7.671875 L 10.414062 7.5 C 10.414062 7.144531 10.136719 6.855469 9.796875 6.855469 L 9.789062 6.855469 C 9.445312 6.855469 9.164062 7.144531 9.164062 7.5 L 9.164062 7.671875 C 9.164062 8.957031 9.164062 8.007812 9.164062 9.296875 L 9.164062 9.457031 C 9.164062 11.09375 9.8125 12.589844 10.84375 13.664062 C 11.023438 13.851562 11.207031 14.023438 11.410156 14.179688 L 11.65625 14.234375 C 13.050781 14.527344 14.609375 14.589844 15.953125 14.0625 C 16.140625 13.992188 16.367188 13.882812 16.585938 13.757812 C 16.058594 13.980469 15.484375 14.113281 14.882812 14.113281 Z M 14.882812 14.113281 " fill-opacity="1" fill-rule="nonzero"/><g clip-path="url(#34a3458463)"><path fill="#004b72" d="M 17.332031 13.339844 C 17.332031 13.339844 15.683594 15.203125 11.636719 14.355469 C 12.550781 15.023438 13.679688 15.414062 14.878906 15.414062 C 16.453125 15.414062 17.878906 14.746094 18.917969 13.664062 C 19.949219 12.585938 20.597656 11.089844 20.597656 9.453125 L 20.597656 9.292969 C 20.597656 8.007812 20.597656 8.953125 20.597656 7.667969 L 20.597656 7.496094 C 20.597656 7.140625 20.316406 6.851562 19.980469 6.851562 L 19.964844 6.851562 C 19.621094 6.851562 19.347656 7.140625 19.347656 7.496094 L 19.347656 7.667969 C 19.347656 9.003906 19.347656 8.117188 19.347656 9.453125 C 19.347656 10.734375 18.84375 11.902344 18.035156 12.738281 C 17.820312 12.964844 17.582031 13.171875 17.332031 13.339844 Z M 17.332031 13.339844 " fill-opacity="1" fill-rule="nonzero"/></g><g fill="#000000" fill-opacity="1"><g transform="translate(7.876881, 18.659004)"><g><path d="M 0.671875 -0.640625 L 0.671875 0 L 0.1875 0 L 0.1875 -1.78125 L 0.765625 -1.78125 C 1.253906 -1.78125 1.5 -1.601562 1.5 -1.25 C 1.5 -1.039062 1.394531 -0.878906 1.1875 -0.765625 L 1.71875 0 L 1.171875 0 L 0.796875 -0.640625 Z M 0.671875 -1 L 0.765625 -1 C 0.929688 -1 1.015625 -1.078125 1.015625 -1.234375 C 1.015625 -1.347656 0.929688 -1.40625 0.765625 -1.40625 L 0.671875 -1.40625 Z M 0.671875 -1 "/></g></g></g><g fill="#000000" fill-opacity="1"><g transform="translate(9.555247, 18.659004)"><g><path d="M 0.828125 0.03125 C 0.597656 0.03125 0.421875 -0.03125 0.296875 -0.15625 C 0.171875 -0.28125 0.109375 -0.453125 0.109375 -0.671875 C 0.109375 -0.910156 0.164062 -1.09375 0.28125 -1.21875 C 0.394531 -1.34375 0.5625 -1.40625 0.78125 -1.40625 C 0.988281 -1.40625 1.148438 -1.347656 1.265625 -1.234375 C 1.378906 -1.128906 1.4375 -0.972656 1.4375 -0.765625 L 1.4375 -0.5625 L 0.578125 -0.5625 C 0.585938 -0.476562 0.617188 -0.414062 0.671875 -0.375 C 0.722656 -0.332031 0.796875 -0.3125 0.890625 -0.3125 C 0.972656 -0.3125 1.046875 -0.316406 1.109375 -0.328125 C 1.179688 -0.347656 1.257812 -0.378906 1.34375 -0.421875 L 1.34375 -0.078125 C 1.269531 -0.0351562 1.191406 -0.0078125 1.109375 0 C 1.035156 0.0195312 0.941406 0.03125 0.828125 0.03125 Z M 0.796875 -1.078125 C 0.742188 -1.078125 0.695312 -1.054688 0.65625 -1.015625 C 0.625 -0.984375 0.601562 -0.929688 0.59375 -0.859375 L 1 -0.859375 C 1 -0.921875 0.976562 -0.972656 0.9375 -1.015625 C 0.90625 -1.054688 0.859375 -1.078125 0.796875 -1.078125 Z M 0.796875 -1.078125 "/></g></g></g><g fill="#000000" fill-opacity="1"><g transform="translate(11.0883, 18.659004)"><g><path d="M 1.0625 0 L 0.96875 -0.1875 L 0.953125 -0.1875 C 0.890625 -0.101562 0.828125 -0.046875 0.765625 -0.015625 C 0.703125 0.015625 0.613281 0.03125 0.5 0.03125 C 0.375 0.03125 0.273438 -0.00390625 0.203125 -0.078125 C 0.128906 -0.160156 0.09375 -0.273438 0.09375 -0.421875 C 0.09375 -0.566406 0.140625 -0.675781 0.234375 -0.75 C 0.335938 -0.820312 0.488281 -0.863281 0.6875 -0.875 L 0.921875 -0.875 L 0.921875 -0.890625 C 0.921875 -1.003906 0.863281 -1.0625 0.75 -1.0625 C 0.644531 -1.0625 0.515625 -1.03125 0.359375 -0.96875 L 0.234375 -1.28125 C 0.390625 -1.363281 0.585938 -1.40625 0.828125 -1.40625 C 1.003906 -1.40625 1.140625 -1.359375 1.234375 -1.265625 C 1.335938 -1.179688 1.390625 -1.0625 1.390625 -0.90625 L 1.390625 0 Z M 0.703125 -0.3125 C 0.765625 -0.3125 0.816406 -0.328125 0.859375 -0.359375 C 0.898438 -0.398438 0.921875 -0.445312 0.921875 -0.5 L 0.921875 -0.609375 L 0.8125 -0.609375 C 0.65625 -0.597656 0.578125 -0.539062 0.578125 -0.4375 C 0.578125 -0.351562 0.617188 -0.3125 0.703125 -0.3125 Z M 0.703125 -0.3125 "/></g></g></g><g fill="#000000" fill-opacity="1"><g transform="translate(12.633462, 18.659004)"><g><path d="M 0.640625 0 L 0.15625 0 L 0.15625 -1.890625 L 0.640625 -1.890625 Z M 0.640625 0 "/></g></g></g><g fill="#000000" fill-opacity="1"><g transform="translate(13.435105, 18.659004)"><g/></g></g><g fill="#000000" fill-opacity="1"><g transform="translate(14.079326, 18.659004)"><g><path d="M 1.25 0 L 0.1875 0 L 0.1875 -1.78125 L 1.25 -1.78125 L 1.25 -1.390625 L 0.671875 -1.390625 L 0.671875 -1.109375 L 1.203125 -1.109375 L 1.203125 -0.71875 L 0.671875 -0.71875 L 0.671875 -0.390625 L 1.25 -0.390625 Z M 1.25 0 "/></g></g></g><g fill="#000000" fill-opacity="1"><g transform="translate(15.440425, 18.659004)"><g><path d="M 1.21875 -0.421875 C 1.21875 -0.273438 1.164062 -0.160156 1.0625 -0.078125 C 0.96875 -0.00390625 0.828125 0.03125 0.640625 0.03125 C 0.535156 0.03125 0.445312 0.0195312 0.375 0 C 0.300781 -0.0078125 0.222656 -0.0234375 0.140625 -0.046875 L 0.140625 -0.4375 C 0.210938 -0.40625 0.289062 -0.375 0.375 -0.34375 C 0.46875 -0.320312 0.550781 -0.3125 0.625 -0.3125 C 0.726562 -0.3125 0.78125 -0.335938 0.78125 -0.390625 C 0.78125 -0.410156 0.765625 -0.429688 0.734375 -0.453125 C 0.703125 -0.472656 0.617188 -0.507812 0.484375 -0.5625 C 0.359375 -0.613281 0.269531 -0.671875 0.21875 -0.734375 C 0.164062 -0.804688 0.140625 -0.894531 0.140625 -1 C 0.140625 -1.125 0.1875 -1.222656 0.28125 -1.296875 C 0.382812 -1.367188 0.523438 -1.40625 0.703125 -1.40625 C 0.796875 -1.40625 0.878906 -1.394531 0.953125 -1.375 C 1.035156 -1.351562 1.125 -1.320312 1.21875 -1.28125 L 1.078125 -0.96875 C 1.015625 -1 0.945312 -1.023438 0.875 -1.046875 C 0.8125 -1.066406 0.757812 -1.078125 0.71875 -1.078125 C 0.632812 -1.078125 0.59375 -1.054688 0.59375 -1.015625 C 0.59375 -0.992188 0.601562 -0.972656 0.625 -0.953125 C 0.65625 -0.941406 0.738281 -0.910156 0.875 -0.859375 C 0.96875 -0.816406 1.035156 -0.773438 1.078125 -0.734375 C 1.128906 -0.703125 1.164062 -0.660156 1.1875 -0.609375 C 1.207031 -0.554688 1.21875 -0.492188 1.21875 -0.421875 Z M 1.21875 -0.421875 "/></g></g></g><g fill="#000000" fill-opacity="1"><g transform="translate(16.762774, 18.659004)"><g><path d="M 0.84375 -0.34375 C 0.90625 -0.34375 0.976562 -0.359375 1.0625 -0.390625 L 1.0625 -0.046875 C 1 -0.0234375 0.9375 -0.0078125 0.875 0 C 0.820312 0.0195312 0.757812 0.03125 0.6875 0.03125 C 0.519531 0.03125 0.398438 -0.00390625 0.328125 -0.078125 C 0.265625 -0.160156 0.234375 -0.285156 0.234375 -0.453125 L 0.234375 -1.015625 L 0.0625 -1.015625 L 0.0625 -1.21875 L 0.28125 -1.359375 L 0.390625 -1.65625 L 0.703125 -1.65625 L 0.703125 -1.375 L 1.046875 -1.375 L 1.046875 -1.015625 L 0.703125 -1.015625 L 0.703125 -0.484375 C 0.703125 -0.390625 0.75 -0.34375 0.84375 -0.34375 Z M 0.84375 -0.34375 "/></g></g></g><g fill="#000000" fill-opacity="1"><g transform="translate(17.903481, 18.659004)"><g><path d="M 1.0625 0 L 0.96875 -0.1875 L 0.953125 -0.1875 C 0.890625 -0.101562 0.828125 -0.046875 0.765625 -0.015625 C 0.703125 0.015625 0.613281 0.03125 0.5 0.03125 C 0.375 0.03125 0.273438 -0.00390625 0.203125 -0.078125 C 0.128906 -0.160156 0.09375 -0.273438 0.09375 -0.421875 C 0.09375 -0.566406 0.140625 -0.675781 0.234375 -0.75 C 0.335938 -0.820312 0.488281 -0.863281 0.6875 -0.875 L 0.921875 -0.875 L 0.921875 -0.890625 C 0.921875 -1.003906 0.863281 -1.0625 0.75 -1.0625 C 0.644531 -1.0625 0.515625 -1.03125 0.359375 -0.96875 L 0.234375 -1.28125 C 0.390625 -1.363281 0.585938 -1.40625 0.828125 -1.40625 C 1.003906 -1.40625 1.140625 -1.359375 1.234375 -1.265625 C 1.335938 -1.179688 1.390625 -1.0625 1.390625 -0.90625 L 1.390625 0 Z M 0.703125 -0.3125 C 0.765625 -0.3125 0.816406 -0.328125 0.859375 -0.359375 C 0.898438 -0.398438 0.921875 -0.445312 0.921875 -0.5 L 0.921875 -0.609375 L 0.8125 -0.609375 C 0.65625 -0.597656 0.578125 -0.539062 0.578125 -0.4375 C 0.578125 -0.351562 0.617188 -0.3125 0.703125 -0.3125 Z M 0.703125 -0.3125 "/></g></g></g><g fill="#000000" fill-opacity="1"><g transform="translate(19.448643, 18.659004)"><g><path d="M 0.84375 -0.34375 C 0.90625 -0.34375 0.976562 -0.359375 1.0625 -0.390625 L 1.0625 -0.046875 C 1 -0.0234375 0.9375 -0.0078125 0.875 0 C 0.820312 0.0195312 0.757812 0.03125 0.6875 0.03125 C 0.519531 0.03125 0.398438 -0.00390625 0.328125 -0.078125 C 0.265625 -0.160156 0.234375 -0.285156 0.234375 -0.453125 L 0.234375 -1.015625 L 0.0625 -1.015625 L 0.0625 -1.21875 L 0.28125 -1.359375 L 0.390625 -1.65625 L 0.703125 -1.65625 L 0.703125 -1.375 L 1.046875 -1.375 L 1.046875 -1.015625 L 0.703125 -1.015625 L 0.703125 -0.484375 C 0.703125 -0.390625 0.75 -0.34375 0.84375 -0.34375 Z M 0.84375 -0.34375 "/></g></g></g><g fill="#000000" fill-opacity="1"><g transform="translate(20.589351, 18.659004)"><g><path d="M 0.828125 0.03125 C 0.597656 0.03125 0.421875 -0.03125 0.296875 -0.15625 C 0.171875 -0.28125 0.109375 -0.453125 0.109375 -0.671875 C 0.109375 -0.910156 0.164062 -1.09375 0.28125 -1.21875 C 0.394531 -1.34375 0.5625 -1.40625 0.78125 -1.40625 C 0.988281 -1.40625 1.148438 -1.347656 1.265625 -1.234375 C 1.378906 -1.128906 1.4375 -0.972656 1.4375 -0.765625 L 1.4375 -0.5625 L 0.578125 -0.5625 C 0.585938 -0.476562 0.617188 -0.414062 0.671875 -0.375 C 0.722656 -0.332031 0.796875 -0.3125 0.890625 -0.3125 C 0.972656 -0.3125 1.046875 -0.316406 1.109375 -0.328125 C 1.179688 -0.347656 1.257812 -0.378906 1.34375 -0.421875 L 1.34375 -0.078125 C 1.269531 -0.0351562 1.191406 -0.0078125 1.109375 0 C 1.035156 0.0195312 0.941406 0.03125 0.828125 0.03125 Z M 0.796875 -1.078125 C 0.742188 -1.078125 0.695312 -1.054688 0.65625 -1.015625 C 0.625 -0.984375 0.601562 -0.929688 0.59375 -0.859375 L 1 -0.859375 C 1 -0.921875 0.976562 -0.972656 0.9375 -1.015625 C 0.90625 -1.054688 0.859375 -1.078125 0.796875 -1.078125 Z M 0.796875 -1.078125 "/></g></g></g><g fill="#000000" fill-opacity="1"><g transform="translate(6.666513, 20.528129)"><g><path d="M 0.578125 -0.921875 C 0.460938 -0.921875 0.375 -0.882812 0.3125 -0.8125 C 0.25 -0.738281 0.21875 -0.632812 0.21875 -0.5 C 0.21875 -0.375 0.25 -0.273438 0.3125 -0.203125 C 0.375 -0.128906 0.460938 -0.09375 0.578125 -0.09375 C 0.640625 -0.09375 0.71875 -0.101562 0.8125 -0.125 L 0.8125 -0.03125 C 0.738281 0 0.65625 0.015625 0.5625 0.015625 C 0.40625 0.015625 0.285156 -0.03125 0.203125 -0.125 C 0.128906 -0.21875 0.09375 -0.347656 0.09375 -0.515625 C 0.09375 -0.617188 0.109375 -0.707031 0.140625 -0.78125 C 0.179688 -0.863281 0.238281 -0.925781 0.3125 -0.96875 C 0.382812 -1.007812 0.472656 -1.03125 0.578125 -1.03125 C 0.679688 -1.03125 0.773438 -1.007812 0.859375 -0.96875 L 0.796875 -0.875 C 0.722656 -0.90625 0.648438 -0.921875 0.578125 -0.921875 Z M 0.578125 -0.921875 "/></g></g></g><g fill="#000000" fill-opacity="1"><g transform="translate(7.560441, 20.528129)"><g><path d="M 0.59375 0 L 0.5625 -0.109375 C 0.519531 -0.0546875 0.476562 -0.0195312 0.4375 0 C 0.40625 0.0078125 0.363281 0.015625 0.3125 0.015625 C 0.226562 0.015625 0.164062 -0.00390625 0.125 -0.046875 C 0.0820312 -0.0859375 0.0625 -0.140625 0.0625 -0.203125 C 0.0625 -0.359375 0.1875 -0.441406 0.4375 -0.453125 L 0.5625 -0.453125 L 0.5625 -0.5 C 0.5625 -0.5625 0.546875 -0.601562 0.515625 -0.625 C 0.492188 -0.65625 0.457031 -0.671875 0.40625 -0.671875 C 0.34375 -0.671875 0.269531 -0.65625 0.1875 -0.625 L 0.15625 -0.703125 C 0.1875 -0.722656 0.222656 -0.738281 0.265625 -0.75 C 0.316406 -0.757812 0.363281 -0.765625 0.40625 -0.765625 C 0.5 -0.765625 0.566406 -0.742188 0.609375 -0.703125 C 0.648438 -0.671875 0.671875 -0.609375 0.671875 -0.515625 L 0.671875 0 Z M 0.328125 -0.078125 C 0.398438 -0.078125 0.457031 -0.0976562 0.5 -0.140625 C 0.539062 -0.179688 0.5625 -0.238281 0.5625 -0.3125 L 0.5625 -0.375 L 0.4375 -0.375 C 0.351562 -0.363281 0.289062 -0.34375 0.25 -0.3125 C 0.207031 -0.289062 0.1875 -0.253906 0.1875 -0.203125 C 0.1875 -0.160156 0.195312 -0.128906 0.21875 -0.109375 C 0.25 -0.0859375 0.285156 -0.078125 0.328125 -0.078125 Z M 0.328125 -0.078125 "/></g></g></g><g fill="#000000" fill-opacity="1"><g transform="translate(8.348509, 20.528129)"><g><path d="M 0.75 -0.765625 L 0.75 -0.6875 L 0.609375 -0.671875 C 0.617188 -0.648438 0.628906 -0.625 0.640625 -0.59375 C 0.648438 -0.570312 0.65625 -0.546875 0.65625 -0.515625 C 0.65625 -0.441406 0.628906 -0.382812 0.578125 -0.34375 C 0.523438 -0.300781 0.457031 -0.28125 0.375 -0.28125 C 0.34375 -0.28125 0.316406 -0.28125 0.296875 -0.28125 C 0.253906 -0.25 0.234375 -0.21875 0.234375 -0.1875 C 0.234375 -0.164062 0.238281 -0.148438 0.25 -0.140625 C 0.269531 -0.128906 0.300781 -0.125 0.34375 -0.125 L 0.484375 -0.125 C 0.566406 -0.125 0.628906 -0.101562 0.671875 -0.0625 C 0.710938 -0.03125 0.734375 0.015625 0.734375 0.078125 C 0.734375 0.160156 0.695312 0.222656 0.625 0.265625 C 0.5625 0.316406 0.46875 0.34375 0.34375 0.34375 C 0.238281 0.34375 0.160156 0.320312 0.109375 0.28125 C 0.0546875 0.25 0.03125 0.195312 0.03125 0.125 C 0.03125 0.0820312 0.0390625 0.0390625 0.0625 0 C 0.09375 -0.03125 0.140625 -0.0507812 0.203125 -0.0625 C 0.179688 -0.0703125 0.160156 -0.0820312 0.140625 -0.09375 C 0.128906 -0.113281 0.125 -0.140625 0.125 -0.171875 C 0.125 -0.191406 0.128906 -0.210938 0.140625 -0.234375 C 0.160156 -0.253906 0.1875 -0.273438 0.21875 -0.296875 C 0.175781 -0.316406 0.144531 -0.34375 0.125 -0.375 C 0.101562 -0.414062 0.09375 -0.460938 0.09375 -0.515625 C 0.09375 -0.597656 0.113281 -0.660156 0.15625 -0.703125 C 0.207031 -0.753906 0.28125 -0.78125 0.375 -0.78125 C 0.414062 -0.78125 0.453125 -0.773438 0.484375 -0.765625 Z M 0.140625 0.125 C 0.140625 0.164062 0.15625 0.195312 0.1875 0.21875 C 0.226562 0.238281 0.28125 0.25 0.34375 0.25 C 0.4375 0.25 0.503906 0.234375 0.546875 0.203125 C 0.597656 0.179688 0.625 0.144531 0.625 0.09375 C 0.625 0.0507812 0.609375 0.0195312 0.578125 0 C 0.554688 -0.0078125 0.507812 -0.015625 0.4375 -0.015625 L 0.296875 -0.015625 C 0.242188 -0.015625 0.203125 -0.00390625 0.171875 0.015625 C 0.148438 0.046875 0.140625 0.0820312 0.140625 0.125 Z M 0.203125 -0.515625 C 0.203125 -0.460938 0.21875 -0.421875 0.25 -0.390625 C 0.28125 -0.367188 0.320312 -0.359375 0.375 -0.359375 C 0.488281 -0.359375 0.546875 -0.410156 0.546875 -0.515625 C 0.546875 -0.628906 0.488281 -0.6875 0.375 -0.6875 C 0.3125 -0.6875 0.265625 -0.671875 0.234375 -0.640625 C 0.210938 -0.617188 0.203125 -0.578125 0.203125 -0.515625 Z M 0.203125 -0.515625 "/></g></g></g><g fill="#000000" fill-opacity="1"><g transform="translate(9.124815, 20.528129)"><g><path d="M 0.59375 0 L 0.5625 -0.109375 C 0.519531 -0.0546875 0.476562 -0.0195312 0.4375 0 C 0.40625 0.0078125 0.363281 0.015625 0.3125 0.015625 C 0.226562 0.015625 0.164062 -0.00390625 0.125 -0.046875 C 0.0820312 -0.0859375 0.0625 -0.140625 0.0625 -0.203125 C 0.0625 -0.359375 0.1875 -0.441406 0.4375 -0.453125 L 0.5625 -0.453125 L 0.5625 -0.5 C 0.5625 -0.5625 0.546875 -0.601562 0.515625 -0.625 C 0.492188 -0.65625 0.457031 -0.671875 0.40625 -0.671875 C 0.34375 -0.671875 0.269531 -0.65625 0.1875 -0.625 L 0.15625 -0.703125 C 0.1875 -0.722656 0.222656 -0.738281 0.265625 -0.75 C 0.316406 -0.757812 0.363281 -0.765625 0.40625 -0.765625 C 0.5 -0.765625 0.566406 -0.742188 0.609375 -0.703125 C 0.648438 -0.671875 0.671875 -0.609375 0.671875 -0.515625 L 0.671875 0 Z M 0.328125 -0.078125 C 0.398438 -0.078125 0.457031 -0.0976562 0.5 -0.140625 C 0.539062 -0.179688 0.5625 -0.238281 0.5625 -0.3125 L 0.5625 -0.375 L 0.4375 -0.375 C 0.351562 -0.363281 0.289062 -0.34375 0.25 -0.3125 C 0.207031 -0.289062 0.1875 -0.253906 0.1875 -0.203125 C 0.1875 -0.160156 0.195312 -0.128906 0.21875 -0.109375 C 0.25 -0.0859375 0.285156 -0.078125 0.328125 -0.078125 Z M 0.328125 -0.078125 "/></g></g></g><g fill="#000000" fill-opacity="1"><g transform="translate(9.912883, 20.528129)"><g><path d="M 0 -0.765625 L 0.125 -0.765625 L 0.296875 -0.328125 C 0.328125 -0.222656 0.347656 -0.148438 0.359375 -0.109375 C 0.367188 -0.128906 0.382812 -0.164062 0.40625 -0.21875 C 0.425781 -0.28125 0.488281 -0.460938 0.59375 -0.765625 L 0.71875 -0.765625 L 0.390625 0.109375 C 0.359375 0.191406 0.316406 0.25 0.265625 0.28125 C 0.222656 0.320312 0.171875 0.34375 0.109375 0.34375 C 0.078125 0.34375 0.046875 0.335938 0.015625 0.328125 L 0.015625 0.234375 C 0.0351562 0.242188 0.0625 0.25 0.09375 0.25 C 0.175781 0.25 0.234375 0.203125 0.265625 0.109375 L 0.3125 0 Z M 0 -0.765625 "/></g></g></g><g fill="#000000" fill-opacity="1"><g transform="translate(10.626918, 20.528129)"><g><path d="M 0.59375 0 L 0.5625 -0.109375 C 0.519531 -0.0546875 0.476562 -0.0195312 0.4375 0 C 0.40625 0.0078125 0.363281 0.015625 0.3125 0.015625 C 0.226562 0.015625 0.164062 -0.00390625 0.125 -0.046875 C 0.0820312 -0.0859375 0.0625 -0.140625 0.0625 -0.203125 C 0.0625 -0.359375 0.1875 -0.441406 0.4375 -0.453125 L 0.5625 -0.453125 L 0.5625 -0.5 C 0.5625 -0.5625 0.546875 -0.601562 0.515625 -0.625 C 0.492188 -0.65625 0.457031 -0.671875 0.40625 -0.671875 C 0.34375 -0.671875 0.269531 -0.65625 0.1875 -0.625 L 0.15625 -0.703125 C 0.1875 -0.722656 0.222656 -0.738281 0.265625 -0.75 C 0.316406 -0.757812 0.363281 -0.765625 0.40625 -0.765625 C 0.5 -0.765625 0.566406 -0.742188 0.609375 -0.703125 C 0.648438 -0.671875 0.671875 -0.609375 0.671875 -0.515625 L 0.671875 0 Z M 0.328125 -0.078125 C 0.398438 -0.078125 0.457031 -0.0976562 0.5 -0.140625 C 0.539062 -0.179688 0.5625 -0.238281 0.5625 -0.3125 L 0.5625 -0.375 L 0.4375 -0.375 C 0.351562 -0.363281 0.289062 -0.34375 0.25 -0.3125 C 0.207031 -0.289062 0.1875 -0.253906 0.1875 -0.203125 C 0.1875 -0.160156 0.195312 -0.128906 0.21875 -0.109375 C 0.25 -0.0859375 0.285156 -0.078125 0.328125 -0.078125 Z M 0.328125 -0.078125 "/></g></g></g><g fill="#000000" fill-opacity="1"><g transform="translate(11.414986, 20.528129)"><g><path d="M 0.640625 0 L 0.640625 -0.5 C 0.640625 -0.550781 0.625 -0.59375 0.59375 -0.625 C 0.570312 -0.65625 0.53125 -0.671875 0.46875 -0.671875 C 0.382812 -0.671875 0.320312 -0.648438 0.28125 -0.609375 C 0.25 -0.566406 0.234375 -0.5 0.234375 -0.40625 L 0.234375 0 L 0.125 0 L 0.125 -0.765625 L 0.21875 -0.765625 L 0.234375 -0.65625 C 0.265625 -0.695312 0.300781 -0.726562 0.34375 -0.75 C 0.382812 -0.769531 0.429688 -0.78125 0.484375 -0.78125 C 0.578125 -0.78125 0.644531 -0.753906 0.6875 -0.703125 C 0.738281 -0.660156 0.765625 -0.59375 0.765625 -0.5 L 0.765625 0 Z M 0.640625 0 "/></g></g></g><g fill="#000000" fill-opacity="1"><g transform="translate(12.284698, 20.528129)"><g/></g></g><g fill="#000000" fill-opacity="1"><g transform="translate(12.652786, 20.528129)"><g><path d="M 0.640625 -0.109375 C 0.578125 -0.0234375 0.492188 0.015625 0.390625 0.015625 C 0.296875 0.015625 0.21875 -0.015625 0.15625 -0.078125 C 0.101562 -0.148438 0.078125 -0.25 0.078125 -0.375 C 0.078125 -0.5 0.101562 -0.597656 0.15625 -0.671875 C 0.21875 -0.742188 0.296875 -0.78125 0.390625 -0.78125 C 0.492188 -0.78125 0.570312 -0.738281 0.625 -0.65625 L 0.640625 -0.65625 L 0.640625 -1.078125 L 0.75 -1.078125 L 0.75 0 L 0.65625 0 Z M 0.40625 -0.078125 C 0.488281 -0.078125 0.546875 -0.0976562 0.578125 -0.140625 C 0.617188 -0.191406 0.640625 -0.265625 0.640625 -0.359375 L 0.640625 -0.375 C 0.640625 -0.488281 0.617188 -0.566406 0.578125 -0.609375 C 0.546875 -0.648438 0.488281 -0.671875 0.40625 -0.671875 C 0.34375 -0.671875 0.289062 -0.644531 0.25 -0.59375 C 0.21875 -0.539062 0.203125 -0.46875 0.203125 -0.375 C 0.203125 -0.28125 0.21875 -0.207031 0.25 -0.15625 C 0.289062 -0.101562 0.34375 -0.078125 0.40625 -0.078125 Z M 0.40625 -0.078125 "/></g></g></g><g fill="#000000" fill-opacity="1"><g transform="translate(13.521114, 20.528129)"><g><path d="M 0.4375 0.015625 C 0.332031 0.015625 0.242188 -0.015625 0.171875 -0.078125 C 0.109375 -0.148438 0.078125 -0.25 0.078125 -0.375 C 0.078125 -0.5 0.109375 -0.597656 0.171875 -0.671875 C 0.234375 -0.742188 0.3125 -0.78125 0.40625 -0.78125 C 0.507812 -0.78125 0.585938 -0.75 0.640625 -0.6875 C 0.691406 -0.625 0.71875 -0.539062 0.71875 -0.4375 L 0.71875 -0.359375 L 0.203125 -0.359375 C 0.203125 -0.265625 0.222656 -0.195312 0.265625 -0.15625 C 0.304688 -0.113281 0.367188 -0.09375 0.453125 -0.09375 C 0.535156 -0.09375 0.613281 -0.109375 0.6875 -0.140625 L 0.6875 -0.03125 C 0.644531 -0.0195312 0.601562 -0.0078125 0.5625 0 C 0.53125 0.0078125 0.488281 0.015625 0.4375 0.015625 Z M 0.40625 -0.671875 C 0.351562 -0.671875 0.304688 -0.648438 0.265625 -0.609375 C 0.234375 -0.578125 0.210938 -0.523438 0.203125 -0.453125 L 0.59375 -0.453125 C 0.59375 -0.523438 0.578125 -0.578125 0.546875 -0.609375 C 0.515625 -0.648438 0.46875 -0.671875 0.40625 -0.671875 Z M 0.40625 -0.671875 "/></g></g></g><g fill="#000000" fill-opacity="1"><g transform="translate(14.316101, 20.528129)"><g/></g></g><g fill="#000000" fill-opacity="1"><g transform="translate(14.684189, 20.528129)"><g><path d="M 1.015625 -0.515625 C 1.015625 -0.347656 0.972656 -0.21875 0.890625 -0.125 C 0.816406 -0.03125 0.707031 0.015625 0.5625 0.015625 C 0.40625 0.015625 0.285156 -0.03125 0.203125 -0.125 C 0.128906 -0.21875 0.09375 -0.347656 0.09375 -0.515625 C 0.09375 -0.679688 0.128906 -0.804688 0.203125 -0.890625 C 0.285156 -0.984375 0.40625 -1.03125 0.5625 -1.03125 C 0.707031 -1.03125 0.816406 -0.984375 0.890625 -0.890625 C 0.972656 -0.796875 1.015625 -0.671875 1.015625 -0.515625 Z M 0.21875 -0.515625 C 0.21875 -0.367188 0.242188 -0.257812 0.296875 -0.1875 C 0.359375 -0.125 0.445312 -0.09375 0.5625 -0.09375 C 0.664062 -0.09375 0.742188 -0.125 0.796875 -0.1875 C 0.859375 -0.257812 0.890625 -0.367188 0.890625 -0.515625 C 0.890625 -0.648438 0.859375 -0.75 0.796875 -0.8125 C 0.742188 -0.882812 0.664062 -0.921875 0.5625 -0.921875 C 0.445312 -0.921875 0.359375 -0.882812 0.296875 -0.8125 C 0.242188 -0.75 0.21875 -0.648438 0.21875 -0.515625 Z M 0.21875 -0.515625 "/></g></g></g><g fill="#000000" fill-opacity="1"><g transform="translate(15.787761, 20.528129)"><g><path d="M 0.46875 -0.78125 C 0.5 -0.78125 0.53125 -0.773438 0.5625 -0.765625 L 0.546875 -0.65625 C 0.515625 -0.664062 0.488281 -0.671875 0.46875 -0.671875 C 0.40625 -0.671875 0.347656 -0.644531 0.296875 -0.59375 C 0.253906 -0.539062 0.234375 -0.476562 0.234375 -0.40625 L 0.234375 0 L 0.125 0 L 0.125 -0.765625 L 0.21875 -0.765625 L 0.234375 -0.625 C 0.265625 -0.664062 0.296875 -0.703125 0.328125 -0.734375 C 0.367188 -0.765625 0.414062 -0.78125 0.46875 -0.78125 Z M 0.46875 -0.78125 "/></g></g></g><g fill="#000000" fill-opacity="1"><g transform="translate(16.366185, 20.528129)"><g><path d="M 0.78125 -0.375 C 0.78125 -0.25 0.75 -0.148438 0.6875 -0.078125 C 0.625 -0.015625 0.535156 0.015625 0.421875 0.015625 C 0.359375 0.015625 0.300781 0 0.25 -0.03125 C 0.195312 -0.0625 0.15625 -0.109375 0.125 -0.171875 C 0.09375 -0.234375 0.078125 -0.300781 0.078125 -0.375 C 0.078125 -0.5 0.109375 -0.597656 0.171875 -0.671875 C 0.234375 -0.742188 0.320312 -0.78125 0.4375 -0.78125 C 0.539062 -0.78125 0.625 -0.742188 0.6875 -0.671875 C 0.75 -0.597656 0.78125 -0.5 0.78125 -0.375 Z M 0.203125 -0.375 C 0.203125 -0.28125 0.21875 -0.207031 0.25 -0.15625 C 0.289062 -0.101562 0.347656 -0.078125 0.421875 -0.078125 C 0.503906 -0.078125 0.5625 -0.101562 0.59375 -0.15625 C 0.632812 -0.207031 0.65625 -0.28125 0.65625 -0.375 C 0.65625 -0.476562 0.632812 -0.550781 0.59375 -0.59375 C 0.5625 -0.644531 0.503906 -0.671875 0.421875 -0.671875 C 0.347656 -0.671875 0.289062 -0.644531 0.25 -0.59375 C 0.21875 -0.550781 0.203125 -0.476562 0.203125 -0.375 Z M 0.203125 -0.375 "/></g></g></g><g fill="#000000" fill-opacity="1"><g transform="translate(17.222059, 20.528129)"><g/></g></g><g fill="#000000" fill-opacity="1"><g transform="translate(17.590147, 20.528129)"><g><path d="M 0.78125 -0.71875 C 0.78125 -0.613281 0.742188 -0.535156 0.671875 -0.484375 C 0.609375 -0.429688 0.507812 -0.40625 0.375 -0.40625 L 0.25 -0.40625 L 0.25 0 L 0.140625 0 L 0.140625 -1.015625 L 0.40625 -1.015625 C 0.65625 -1.015625 0.78125 -0.914062 0.78125 -0.71875 Z M 0.25 -0.5 L 0.359375 -0.5 C 0.460938 -0.5 0.535156 -0.515625 0.578125 -0.546875 C 0.628906 -0.585938 0.65625 -0.644531 0.65625 -0.71875 C 0.65625 -0.78125 0.632812 -0.828125 0.59375 -0.859375 C 0.550781 -0.890625 0.484375 -0.90625 0.390625 -0.90625 L 0.25 -0.90625 Z M 0.25 -0.5 "/></g></g></g><g fill="#000000" fill-opacity="1"><g transform="translate(18.443253, 20.528129)"><g><path d="M 0.46875 -0.78125 C 0.5 -0.78125 0.53125 -0.773438 0.5625 -0.765625 L 0.546875 -0.65625 C 0.515625 -0.664062 0.488281 -0.671875 0.46875 -0.671875 C 0.40625 -0.671875 0.347656 -0.644531 0.296875 -0.59375 C 0.253906 -0.539062 0.234375 -0.476562 0.234375 -0.40625 L 0.234375 0 L 0.125 0 L 0.125 -0.765625 L 0.21875 -0.765625 L 0.234375 -0.625 C 0.265625 -0.664062 0.296875 -0.703125 0.328125 -0.734375 C 0.367188 -0.765625 0.414062 -0.78125 0.46875 -0.78125 Z M 0.46875 -0.78125 "/></g></g></g><g fill="#000000" fill-opacity="1"><g transform="translate(19.021677, 20.528129)"><g><path d="M 0.78125 -0.375 C 0.78125 -0.25 0.75 -0.148438 0.6875 -0.078125 C 0.625 -0.015625 0.535156 0.015625 0.421875 0.015625 C 0.359375 0.015625 0.300781 0 0.25 -0.03125 C 0.195312 -0.0625 0.15625 -0.109375 0.125 -0.171875 C 0.09375 -0.234375 0.078125 -0.300781 0.078125 -0.375 C 0.078125 -0.5 0.109375 -0.597656 0.171875 -0.671875 C 0.234375 -0.742188 0.320312 -0.78125 0.4375 -0.78125 C 0.539062 -0.78125 0.625 -0.742188 0.6875 -0.671875 C 0.75 -0.597656 0.78125 -0.5 0.78125 -0.375 Z M 0.203125 -0.375 C 0.203125 -0.28125 0.21875 -0.207031 0.25 -0.15625 C 0.289062 -0.101562 0.347656 -0.078125 0.421875 -0.078125 C 0.503906 -0.078125 0.5625 -0.101562 0.59375 -0.15625 C 0.632812 -0.207031 0.65625 -0.28125 0.65625 -0.375 C 0.65625 -0.476562 0.632812 -0.550781 0.59375 -0.59375 C 0.5625 -0.644531 0.503906 -0.671875 0.421875 -0.671875 C 0.347656 -0.671875 0.289062 -0.644531 0.25 -0.59375 C 0.21875 -0.550781 0.203125 -0.476562 0.203125 -0.375 Z M 0.203125 -0.375 "/></g></g></g><g fill="#000000" fill-opacity="1"><g transform="translate(19.877551, 20.528129)"><g><path d="M 0.46875 0.015625 C 0.425781 0.015625 0.382812 0.00390625 0.34375 -0.015625 C 0.300781 -0.0351562 0.265625 -0.0625 0.234375 -0.09375 C 0.234375 -0.0507812 0.234375 -0.0078125 0.234375 0.03125 L 0.234375 0.34375 L 0.125 0.34375 L 0.125 -0.765625 L 0.21875 -0.765625 L 0.234375 -0.65625 C 0.265625 -0.695312 0.300781 -0.726562 0.34375 -0.75 C 0.382812 -0.769531 0.425781 -0.78125 0.46875 -0.78125 C 0.570312 -0.78125 0.648438 -0.742188 0.703125 -0.671875 C 0.765625 -0.597656 0.796875 -0.5 0.796875 -0.375 C 0.796875 -0.25 0.765625 -0.148438 0.703125 -0.078125 C 0.648438 -0.015625 0.570312 0.015625 0.46875 0.015625 Z M 0.453125 -0.671875 C 0.378906 -0.671875 0.320312 -0.648438 0.28125 -0.609375 C 0.25 -0.566406 0.234375 -0.5 0.234375 -0.40625 L 0.234375 -0.375 C 0.234375 -0.269531 0.25 -0.191406 0.28125 -0.140625 C 0.320312 -0.0976562 0.382812 -0.078125 0.46875 -0.078125 C 0.53125 -0.078125 0.578125 -0.101562 0.609375 -0.15625 C 0.648438 -0.21875 0.671875 -0.289062 0.671875 -0.375 C 0.671875 -0.476562 0.648438 -0.550781 0.609375 -0.59375 C 0.578125 -0.644531 0.523438 -0.671875 0.453125 -0.671875 Z M 0.453125 -0.671875 "/></g></g></g><g fill="#000000" fill-opacity="1"><g transform="translate(20.745879, 20.528129)"><g><path d="M 0.4375 0.015625 C 0.332031 0.015625 0.242188 -0.015625 0.171875 -0.078125 C 0.109375 -0.148438 0.078125 -0.25 0.078125 -0.375 C 0.078125 -0.5 0.109375 -0.597656 0.171875 -0.671875 C 0.234375 -0.742188 0.3125 -0.78125 0.40625 -0.78125 C 0.507812 -0.78125 0.585938 -0.75 0.640625 -0.6875 C 0.691406 -0.625 0.71875 -0.539062 0.71875 -0.4375 L 0.71875 -0.359375 L 0.203125 -0.359375 C 0.203125 -0.265625 0.222656 -0.195312 0.265625 -0.15625 C 0.304688 -0.113281 0.367188 -0.09375 0.453125 -0.09375 C 0.535156 -0.09375 0.613281 -0.109375 0.6875 -0.140625 L 0.6875 -0.03125 C 0.644531 -0.0195312 0.601562 -0.0078125 0.5625 0 C 0.53125 0.0078125 0.488281 0.015625 0.4375 0.015625 Z M 0.40625 -0.671875 C 0.351562 -0.671875 0.304688 -0.648438 0.265625 -0.609375 C 0.234375 -0.578125 0.210938 -0.523438 0.203125 -0.453125 L 0.59375 -0.453125 C 0.59375 -0.523438 0.578125 -0.578125 0.546875 -0.609375 C 0.515625 -0.648438 0.46875 -0.671875 0.40625 -0.671875 Z M 0.40625 -0.671875 "/></g></g></g><g fill="#000000" fill-opacity="1"><g transform="translate(21.540866, 20.528129)"><g><path d="M 0.46875 -0.78125 C 0.5 -0.78125 0.53125 -0.773438 0.5625 -0.765625 L 0.546875 -0.65625 C 0.515625 -0.664062 0.488281 -0.671875 0.46875 -0.671875 C 0.40625 -0.671875 0.347656 -0.644531 0.296875 -0.59375 C 0.253906 -0.539062 0.234375 -0.476562 0.234375 -0.40625 L 0.234375 0 L 0.125 0 L 0.125 -0.765625 L 0.21875 -0.765625 L 0.234375 -0.625 C 0.265625 -0.664062 0.296875 -0.703125 0.328125 -0.734375 C 0.367188 -0.765625 0.414062 -0.78125 0.46875 -0.78125 Z M 0.46875 -0.78125 "/></g></g></g><g fill="#000000" fill-opacity="1"><g transform="translate(22.11929, 20.528129)"><g><path d="M 0.375 -0.078125 C 0.394531 -0.078125 0.410156 -0.078125 0.421875 -0.078125 C 0.441406 -0.0859375 0.457031 -0.09375 0.46875 -0.09375 L 0.46875 0 C 0.457031 0 0.4375 0 0.40625 0 C 0.382812 0.0078125 0.363281 0.015625 0.34375 0.015625 C 0.195312 0.015625 0.125 -0.0625 0.125 -0.21875 L 0.125 -0.671875 L 0.015625 -0.671875 L 0.015625 -0.734375 L 0.125 -0.78125 L 0.171875 -0.9375 L 0.25 -0.9375 L 0.25 -0.765625 L 0.46875 -0.765625 L 0.46875 -0.671875 L 0.25 -0.671875 L 0.25 -0.21875 C 0.25 -0.175781 0.257812 -0.140625 0.28125 -0.109375 C 0.300781 -0.0859375 0.332031 -0.078125 0.375 -0.078125 Z M 0.375 -0.078125 "/></g></g></g><g fill="#000000" fill-opacity="1"><g transform="translate(22.61953, 20.528129)"><g><path d="M 0 -0.765625 L 0.125 -0.765625 L 0.296875 -0.328125 C 0.328125 -0.222656 0.347656 -0.148438 0.359375 -0.109375 C 0.367188 -0.128906 0.382812 -0.164062 0.40625 -0.21875 C 0.425781 -0.28125 0.488281 -0.460938 0.59375 -0.765625 L 0.71875 -0.765625 L 0.390625 0.109375 C 0.359375 0.191406 0.316406 0.25 0.265625 0.28125 C 0.222656 0.320312 0.171875 0.34375 0.109375 0.34375 C 0.078125 0.34375 0.046875 0.335938 0.015625 0.328125 L 0.015625 0.234375 C 0.0351562 0.242188 0.0625 0.25 0.09375 0.25 C 0.175781 0.25 0.234375 0.203125 0.265625 0.109375 L 0.3125 0 Z M 0 -0.765625 "/></g></g></g><g mask="url(#79a1af9e7f)"><g transform="matrix(1, 0, 0, 1, 7, 13)"><g clip-path="url(#1e0247d07b)"><g clip-path="url(#a3781ebdb7)"><path fill="#0652e9" d="M 6.082031 9.574219 L 6.082031 10.558594 L 1.679688 8.488281 L 1.679688 7.6875 L 6.082031 5.617188 L 6.082031 6.601562 L 2.753906 8.078125 L 2.753906 8.097656 Z M 8.695312 4.523438 L 1.335938 4.523438 C 0.988281 4.523438 0.707031 4.808594 0.707031 5.160156 L 0.707031 11.015625 C 0.707031 11.371094 0.988281 11.65625 1.335938 11.65625 L 6.652344 11.65625 L 8.695312 4.523438 " fill-opacity="1" fill-rule="nonzero"/></g><g clip-path="url(#2aa1578a4a)"><path fill="#62e1e9" d="M 15.699219 4.773438 L 11.296875 6.820312 L 11.296875 5.835938 L 14.699219 4.355469 L 14.699219 4.339844 L 11.296875 2.859375 L 11.296875 1.875 L 15.699219 3.921875 Z M 10.738281 0.78125 L 8.695312 7.914062 L 16.046875 7.914062 C 16.394531 7.914062 16.675781 7.628906 16.675781 7.277344 L 16.675781 1.417969 C 16.675781 1.066406 16.394531 0.78125 16.046875 0.78125 L 10.738281 0.78125 " fill-opacity="1" fill-rule="nonzero"/></g></g></g></g><g mask="url(#14f68a769e)"><g transform="matrix(1, 0, 0, 1, 14, 21)"><g clip-path="url(#618a1cbcc1)"><g clip-path="url(#424d0241ba)"><g fill="#62e1e9" fill-opacity="1"><g transform="translate(0.32737, 3.670196)"><g><path d="M 1.550781 -2.296875 L 0.289062 -2.296875 L 0.289062 -1.847656 L 1.042969 -1.847656 L 1.042969 -0.65625 C 1.042969 -0.515625 0.945312 -0.414062 0.820312 -0.414062 C 0.703125 -0.414062 0.617188 -0.496094 0.597656 -0.617188 L 0.0976562 -0.472656 C 0.148438 -0.160156 0.398438 0.03125 0.820312 0.03125 C 1.289062 0.03125 1.550781 -0.210938 1.550781 -0.589844 Z M 1.550781 -2.296875 "/></g></g></g></g><g fill="#62e1e9" fill-opacity="1"><g transform="translate(2.06879, 3.670196)"><g><path d="M 2.226562 -2.296875 L 1.496094 -0.707031 L 0.773438 -2.296875 L 0.226562 -2.296875 L 0.226562 0 L 0.730469 0 L 0.730469 -1.371094 L 1.351562 0 L 1.640625 0 L 2.265625 -1.367188 L 2.265625 0 L 2.769531 0 L 2.769531 -2.296875 Z M 2.226562 -2.296875 "/></g></g></g><g clip-path="url(#77107f1fa6)"><g fill="#62e1e9" fill-opacity="1"><g transform="translate(5.065562, 3.670196)"><g><path d="M 1.320312 -1.257812 L 1.320312 -0.863281 L 1.953125 -0.863281 C 1.84375 -0.625 1.609375 -0.464844 1.324219 -0.464844 C 0.9375 -0.464844 0.640625 -0.761719 0.640625 -1.148438 C 0.640625 -1.535156 0.9375 -1.832031 1.324219 -1.832031 C 1.597656 -1.832031 1.816406 -1.6875 1.933594 -1.46875 L 2.367188 -1.695312 C 2.171875 -2.070312 1.777344 -2.328125 1.324219 -2.328125 C 0.667969 -2.328125 0.144531 -1.800781 0.144531 -1.148438 C 0.144531 -0.496094 0.667969 0.03125 1.324219 0.03125 C 1.976562 0.03125 2.503906 -0.496094 2.503906 -1.148438 L 2.503906 -1.257812 Z M 1.320312 -1.257812 "/></g></g></g></g></g></g></g></svg>